<svg xmlns="http://www.w3.org/2000/svg" version="1.1" xmlns:xlink="http://www.w3.org/1999/xlink" xmlns:svgjs="http://svgjs.dev/svgjs" width="1000" height="1000" viewBox="0 0 1000 1000"><rect width="1000" height="1000" fill="#ffffff"></rect><g transform="matrix(0.7,0,0,0.7,149.57575757575756,282.1265587044535)"><svg viewBox="0 0 396 247" data-background-color="#ffffff" preserveAspectRatio="xMidYMid meet" height="623" width="1000" xmlns="http://www.w3.org/2000/svg" xmlns:xlink="http://www.w3.org/1999/xlink"><defs></defs><g id="tight-bounds" transform="matrix(1,0,0,1,0.2400000000000091,-0.09999999999999432)"><svg viewBox="0 0 395.52 247.2" height="247.2" width="395.52"><g><svg></svg></g><g><svg viewBox="0 0 395.52 247.2" height="247.2" width="395.52"><g transform="matrix(3.3715590984880732, 0, 0, 3.3715590984880732, 29.182045075596335, 1)"><svg version="1.1" xmlns="http://www.w3.org/2000/svg" xmlns:xlink="http://www.w3.org/1999/xlink" x="0" y="0" viewBox="0 0 100 72.72599792480469" enable-background="new 0 0 100 72.726" xml:space="preserve" width="100" height="72.72599792480469" class="icon-none" data-fill-palette-color="accent" id="none"><path fill="#096a2e" d="M36.363 72.726C16.281 72.726 0 56.447 0 36.364 0 16.279 16.281 0 36.363 0c13.648 0 25.523 7.528 31.743 18.646 1.51-0.257 3.041-0.466 4.622-0.466C87.791 18.18 100 30.393 100 45.455c0 15.059-12.209 27.271-27.271 27.271C66.42 72.726 43.633 72.726 36.363 72.726zM72.729 63.634c10.042 0 18.184-8.143 18.184-18.18 0-10.041-8.142-18.183-18.184-18.183-3.639 0-7.006 1.093-9.852 2.935C60.08 18.123 49.3 9.09 36.363 9.09 21.303 9.09 9.092 21.3 9.092 36.364c0 15.062 12.211 27.271 27.271 27.271C44.585 63.634 65.864 63.634 72.729 63.634z" data-fill-palette-color="accent"></path></svg></g><rect width="348.05760000000004" height="81.42593594260583" fill="#ffffff" y="82.88703202869708" x="23.731199999999973" data-fill-palette-color="quaternary"></rect><g transform="matrix(1,0,0,1,39.55199999999999,91.15049943326215)"><svg viewBox="0 0 316.416 64.89900113347568" height="64.89900113347568" width="316.416"><g><svg viewBox="0 0 316.416 64.89900113347568" height="64.89900113347568" width="316.416"><g><svg viewBox="0 0 316.416 64.89900113347568" height="64.89900113347568" width="316.416"><g><svg viewBox="0 0 316.416 64.89900113347568" height="64.89900113347568" width="316.416"><g><svg viewBox="0 0 316.416 64.89900113347568" height="64.89900113347568" width="316.416"><g><svg viewBox="0 0 316.416 35.003420104394685" height="35.003420104394685" width="316.416"><g transform="matrix(1,0,0,1,0,0)"><svg width="316.416" viewBox="0.949999988079071 -32.45000076293945 296.91998291015625 32.85000228881836" height="35.003420104394685" data-palette-color="#096a2e"><path d="M23.55-32.1L23.85-31.65 23.55-27.75 17.75-28.05 15.05-28.05 14.8-10.1 15.05 0 9.85 0 10.15-9.65 9.9-28.05 7.2-28.05 1.3-27.75 0.95-28.2 1.35-32.1 23.55-32.1ZM41.8-10Q44.7-5.65 48.35-1.15L48.35-1.15 48.3-0.55Q45.7 0.2 43.75 0.35L43.75 0.35 43-0.1Q39.35-6 37.85-8.7L37.85-8.7 33.45-8.65 33.45-7.95 33.65 0 28.85 0 29.05-7.5 28.85-25.05 38.35-25.1Q42.4-25.1 44.62-23.18 46.85-21.25 46.85-17.75L46.85-17.75Q46.85-15.3 45.52-13.3 44.2-11.3 41.8-10L41.8-10ZM33.65-21.3L33.5-12.5 37.85-12.35Q41.8-13.5 41.8-17.3L41.8-17.3Q41.8-19.35 40.6-20.33 39.4-21.3 36.95-21.4L36.95-21.4 33.65-21.3ZM63.59-3.8L70.34-4 70.69-3.65 70.3 0 54.24 0 54.45-7.5 54.24-25.05 70.44-25.05 70.75-24.65 70.39-21 64.05-21.25 59.05-21.2 58.95-14.7 63.74-14.65 68.09-14.8 68.34-14.4 68.05-10.7 63.34-10.85 58.89-10.8 58.84-7.95 58.95-3.85 63.59-3.8ZM85.79-3.8L92.54-4 92.89-3.65 92.49 0 76.44 0 76.64-7.5 76.44-25.05 92.64-25.05 92.94-24.65 92.59-21 86.24-21.25 81.24-21.2 81.14-14.7 85.94-14.65 90.29-14.8 90.54-14.4 90.24-10.7 85.54-10.85 81.09-10.8 81.04-7.95 81.14-3.85 85.79-3.8ZM114.89-25.05L115.14-24.65 114.84-20.8 109.99-21.15 107.89-21.15 107.79-7.95 107.94 0 103.14 0 103.34-7.5 103.24-21.15 101.19-21.15 96.24-20.8 95.89-21.2 96.24-25.05 114.89-25.05ZM129.14-25.4Q134.64-25.4 137.66-22.18 140.69-18.95 140.69-13.1L140.69-13.1Q140.69-6.6 137.46-3.1 134.24 0.4 128.29 0.4L128.29 0.4Q122.74 0.4 119.74-2.9 116.74-6.2 116.74-12.25L116.74-12.25Q116.74-18.55 119.96-21.98 123.19-25.4 129.14-25.4L129.14-25.4ZM128.69-21.45Q125.09-21.45 123.41-19.43 121.74-17.4 121.74-12.85L121.74-12.85Q121.74-7.8 123.39-5.65 125.04-3.5 128.64-3.5L128.64-3.5Q132.29-3.5 133.99-5.53 135.69-7.55 135.69-12.15L135.69-12.15Q135.69-17.15 134.04-19.3 132.39-21.45 128.69-21.45L128.69-21.45ZM156.19-25.1Q160.24-25.1 162.46-23.13 164.69-21.15 164.69-17.5L164.69-17.5Q164.69-13.2 161.84-10.73 158.99-8.25 154.14-8.25L154.14-8.25 151.29-8.25 151.29-7.95 151.49 0 146.69 0 146.89-7.5 146.69-25.05 156.19-25.1ZM155.34-11.85Q159.64-12.75 159.64-17.1L159.64-17.1Q159.64-19.25 158.44-20.3 157.24-21.35 154.74-21.45L154.74-21.45 151.49-21.35 151.34-11.95 155.34-11.85ZM190.78-32.45Q195.68-32.45 199.43-30.25L199.43-30.25 198.48-25.7 197.98-25.55Q194.63-28.15 190.58-28.15L190.58-28.15Q186.18-28.15 183.86-25.18 181.53-22.2 181.53-16.3L181.53-16.3Q181.53-10.25 183.88-7.1 186.23-3.95 190.58-3.95L190.58-3.95Q192.68-3.95 194.76-4.67 196.83-5.4 198.58-6.7L198.58-6.7 199.08-6.4 198.68-1.7Q194.38 0.4 190.18 0.4L190.18 0.4Q183.43 0.4 179.78-3.8 176.13-8 176.13-15.75L176.13-15.75Q176.13-23.75 179.96-28.1 183.78-32.45 190.78-32.45L190.78-32.45ZM214.78-25.4Q220.28-25.4 223.3-22.18 226.33-18.95 226.33-13.1L226.33-13.1Q226.33-6.6 223.1-3.1 219.88 0.4 213.93 0.4L213.93 0.4Q208.38 0.4 205.38-2.9 202.38-6.2 202.38-12.25L202.38-12.25Q202.38-18.55 205.6-21.98 208.83-25.4 214.78-25.4L214.78-25.4ZM214.33-21.45Q210.73-21.45 209.05-19.43 207.38-17.4 207.38-12.85L207.38-12.85Q207.38-7.8 209.03-5.65 210.68-3.5 214.28-3.5L214.28-3.5Q217.93-3.5 219.63-5.53 221.33-7.55 221.33-12.15L221.33-12.15Q221.33-17.15 219.68-19.3 218.03-21.45 214.33-21.45L214.33-21.45ZM242.63-25.25Q248.38-25.25 251.45-22.2 254.53-19.15 254.53-13.45L254.53-13.45Q254.53-6.8 251.13-3.28 247.73 0.25 241.43 0.25L241.43 0.25Q236.68 0.25 232.33 0L232.33 0 232.53-7.5 232.33-25.05 242.63-25.25ZM242.23-3.5Q245.78-3.5 247.68-5.7 249.58-7.9 249.58-12.35L249.58-12.35Q249.58-17 247.78-19.13 245.98-21.25 242.28-21.25L242.28-21.25Q239.18-21.25 237.13-21.05L237.13-21.05 236.93-7.95 237.03-3.85Q240.78-3.5 242.23-3.5L242.23-3.5ZM269.92-3.8L276.67-4 277.02-3.65 276.62 0 260.57 0 260.77-7.5 260.57-25.05 276.77-25.05 277.07-24.65 276.72-21 270.37-21.25 265.37-21.2 265.27-14.7 270.07-14.65 274.42-14.8 274.67-14.4 274.37-10.7 269.67-10.85 265.22-10.8 265.17-7.95 265.27-3.85 269.92-3.8ZM290.82-25.35Q294.02-25.35 297.22-24.1L297.22-24.1 296.47-19.55 295.72-19.4Q292.82-21.7 290.22-21.7L290.22-21.7Q288.37-21.7 287.3-20.75 286.22-19.8 286.22-18.55L286.22-18.55Q286.22-17.3 287.35-16.48 288.47-15.65 290.87-14.65L290.87-14.65Q293.12-13.7 294.5-12.88 295.87-12.05 296.87-10.7 297.87-9.35 297.87-7.35L297.87-7.35Q297.87-5.3 296.8-3.55 295.72-1.8 293.6-0.73 291.47 0.35 288.47 0.35L288.47 0.35Q286.67 0.35 284.67-0.05 282.67-0.45 280.82-1.25L280.82-1.25 281.47-6.1 282.02-6.4Q283.47-4.95 285.45-4.13 287.42-3.3 289.07-3.3L289.07-3.3Q290.87-3.3 292-4.23 293.12-5.15 293.12-6.5L293.12-6.5Q293.12-7.85 291.97-8.68 290.82-9.5 288.42-10.5L288.42-10.5Q286.27-11.45 284.87-12.28 283.47-13.1 282.5-14.48 281.52-15.85 281.52-17.85L281.52-17.85Q281.52-19.95 282.65-21.65 283.77-23.35 285.9-24.35 288.02-25.35 290.82-25.35L290.82-25.35Z" opacity="1" transform="matrix(1,0,0,1,0,0)" fill="#096a2e" class="undefined-text-0" data-fill-palette-color="primary" id="text-0"></path></svg></g></svg></g><g transform="matrix(1,0,0,1,0,43.26688750895977)"><svg viewBox="0 0 316.416 21.632113624515917" height="21.632113624515917" width="316.416"><g transform="matrix(1,0,0,1,0,0)"><svg width="316.416" viewBox="3.549999952316284 -36.150001525878906 661.8800048828125 45.25" height="21.632113624515917" data-palette-color="#096a2e"><path d="M3.65 0L3.65-26.3 7.75-26.3 7.75 0 3.65 0ZM3.55-31.4L3.55-36.15 7.8-36.15 7.8-31.4 3.55-31.4ZM43.35 0L43.35-26.3 46.45-26.3 47-23.25 47.3-23.25Q49.35-26.9 53.65-26.9L53.65-26.9Q56.8-26.9 58.47-25.03 60.15-23.15 60.15-18.95L60.15-18.95 60.15 0 56.05 0 56.05-18.65Q56.05-21.2 55.1-22.23 54.15-23.25 52.35-23.25L52.35-23.25Q50.3-23.25 48.87-21.3 47.45-19.35 47.45-16.05L47.45-16.05 47.45 0 43.35 0ZM99.75 0.5Q97.25 0.5 96.15-1.23 95.05-2.95 95.05-5.55L95.05-5.55 95.05-22.65 92.8-22.65 92.8-26.3 95.05-26.3 95.95-33.6 99.15-33.6 99.15-26.3 102.7-26.3 102.7-22.65 99.15-22.65 99.15-5.45Q99.15-3.05 101.5-3.05L101.5-3.05 102.7-3.05 102.7-0.2Q102.15 0.1 101.32 0.3 100.5 0.5 99.75 0.5L99.75 0.5ZM144.5 0.6Q139.5 0.6 137.02-2.68 134.55-5.95 134.55-13.15L134.55-13.15Q134.55-20.2 137-23.55 139.45-26.9 144.45-26.9L144.45-26.9Q148.85-26.9 150.97-23.98 153.1-21.05 153.1-14.55L153.1-14.55 153.1-11.95 138.85-11.95Q138.9-7.35 140.27-5.2 141.65-3.05 144.6-3.05L144.6-3.05Q146.6-3.05 147.82-4.65 149.05-6.25 149.05-8.95L149.05-8.95 153.1-8.95Q153.1-4.55 150.72-1.98 148.35 0.6 144.5 0.6L144.5 0.6ZM138.9-15.6L148.8-15.6Q148.8-19.35 147.7-21.3 146.6-23.25 144.45-23.25L144.45-23.25Q141.8-23.25 140.47-21.38 139.15-19.5 138.9-15.6L138.9-15.6ZM187.19 0L187.19-26.3 190.29-26.3 190.84-22.85 191.14-22.85Q191.69-24.6 192.79-25.75 193.89-26.9 195.59-26.9L195.59-26.9Q196.64-26.9 197.54-26.5L197.54-26.5 197.54-22.25 196.19-22.25Q194.04-22.25 192.67-20.78 191.29-19.3 191.29-16.05L191.29-16.05 191.29 0 187.19 0ZM229.79 0L229.79-26.3 232.89-26.3 233.44-23.25 233.74-23.25Q235.79-26.9 240.09-26.9L240.09-26.9Q243.24-26.9 244.92-25.03 246.59-23.15 246.59-18.95L246.59-18.95 246.59 0 242.49 0 242.49-18.65Q242.49-21.2 241.54-22.23 240.59-23.25 238.79-23.25L238.79-23.25Q236.74-23.25 235.32-21.3 233.89-19.35 233.89-16.05L233.89-16.05 233.89 0 229.79 0ZM290.59 0.6Q285.59 0.6 283.12-2.68 280.64-5.95 280.64-13.15L280.64-13.15Q280.64-20.2 283.09-23.55 285.54-26.9 290.54-26.9L290.54-26.9Q294.94-26.9 297.07-23.98 299.19-21.05 299.19-14.55L299.19-14.55 299.19-11.95 284.94-11.95Q284.99-7.35 286.37-5.2 287.74-3.05 290.69-3.05L290.69-3.05Q292.69-3.05 293.92-4.65 295.14-6.25 295.14-8.95L295.14-8.95 299.19-8.95Q299.19-4.55 296.82-1.98 294.44 0.6 290.59 0.6L290.59 0.6ZM284.99-15.6L294.89-15.6Q294.89-19.35 293.79-21.3 292.69-23.25 290.54-23.25L290.54-23.25Q287.89-23.25 286.57-21.38 285.24-19.5 284.99-15.6L284.99-15.6ZM337.94 0.5Q335.44 0.5 334.34-1.23 333.24-2.95 333.24-5.55L333.24-5.55 333.24-22.65 330.99-22.65 330.99-26.3 333.24-26.3 334.14-33.6 337.34-33.6 337.34-26.3 340.89-26.3 340.89-22.65 337.34-22.65 337.34-5.45Q337.34-3.05 339.69-3.05L339.69-3.05 340.89-3.05 340.89-0.2Q340.34 0.1 339.51 0.3 338.69 0.5 337.94 0.5L337.94 0.5ZM418.64 0.5Q416.14 0.5 415.04-1.23 413.94-2.95 413.94-5.55L413.94-5.55 413.94-22.65 411.69-22.65 411.69-26.3 413.94-26.3 414.84-33.6 418.04-33.6 418.04-26.3 421.59-26.3 421.59-22.65 418.04-22.65 418.04-5.45Q418.04-3.05 420.39-3.05L420.39-3.05 421.59-3.05 421.59-0.2Q421.04 0.1 420.21 0.3 419.39 0.5 418.64 0.5L418.64 0.5ZM454.33 0L454.33-36.15 458.43-36.15 458.43-23.55 458.73-23.55Q460.63-26.9 464.63-26.9L464.63-26.9Q467.78-26.9 469.46-25.03 471.13-23.15 471.13-18.95L471.13-18.95 471.13 0 467.03 0 467.03-18.65Q467.03-21.2 466.08-22.23 465.13-23.25 463.33-23.25L463.33-23.25Q461.28-23.25 459.86-21.3 458.43-19.35 458.43-16.05L458.43-16.05 458.43 0 454.33 0ZM506.73 0L506.73-26.3 510.83-26.3 510.83 0 506.73 0ZM506.63-31.4L506.63-36.15 510.88-36.15 510.88-31.4 506.63-31.4ZM546.43 0L546.43-26.3 549.53-26.3 550.08-23.25 550.38-23.25Q552.43-26.9 556.73-26.9L556.73-26.9Q559.88-26.9 561.56-25.03 563.23-23.15 563.23-18.95L563.23-18.95 563.23 0 559.13 0 559.13-18.65Q559.13-21.2 558.18-22.23 557.23-23.25 555.43-23.25L555.43-23.25Q553.38-23.25 551.96-21.3 550.53-19.35 550.53-16.05L550.53-16.05 550.53 0 546.43 0ZM602.33 9.1Q599.23 9.1 597.53 7.33 595.83 5.55 595.83 2.85L595.83 2.85Q595.83 0.9 596.75-0.63 597.68-2.15 599.23-2.75L599.23-2.75Q598.23-3.4 597.65-4.45 597.08-5.5 597.08-6.7L597.08-6.7Q597.08-8.25 598.08-9.45 599.08-10.65 600.78-11.25L600.78-11.25Q597.73-13.75 597.73-18.05L597.73-18.05Q597.73-22.2 600.03-24.55 602.33-26.9 606.33-26.9L606.33-26.9Q608.38-26.9 610.13-25.95L610.13-25.95Q611.73-26.8 612.45-27.95 613.18-29.1 613.38-30.55L613.38-30.55 616.98-30.55Q616.98-28.15 615.8-26.45 614.63-24.75 612.58-24.25L612.58-24.25Q614.93-21.8 614.93-18.05L614.93-18.05Q614.93-14 612.65-11.63 610.38-9.25 606.53-9.2L606.53-9.2 603.78-9.2Q602.78-9.2 602.08-8.53 601.38-7.85 601.38-6.85L601.38-6.85Q601.38-5.9 602.08-5.2 602.78-4.5 603.78-4.5L603.78-4.5 611.28-4.5Q614.08-4.5 615.78-2.73 617.48-0.95 617.48 1.65L617.48 1.65Q617.48 4.9 615.45 7 613.43 9.1 609.78 9.1L609.78 9.1 602.33 9.1ZM606.28-12.6Q608.43-12.6 609.6-14.05 610.78-15.5 610.78-18.05L610.78-18.05Q610.78-20.7 609.6-22.1 608.43-23.5 606.28-23.5L606.28-23.5Q604.13-23.5 602.98-22.05 601.83-20.6 601.83-18.05L601.83-18.05Q601.83-15.4 602.98-14 604.13-12.6 606.28-12.6L606.28-12.6ZM602.98 5.55L610.23 5.55Q611.53 5.55 612.43 4.65 613.33 3.75 613.33 2.45L613.33 2.45Q613.33 1.1 612.53 0.25 611.73-0.6 610.23-0.6L610.23-0.6 602.98-0.6Q601.48-0.6 600.7 0.25 599.93 1.1 599.93 2.45L599.93 2.45Q599.93 3.8 600.73 4.67 601.53 5.55 602.98 5.55L602.98 5.55ZM657.03 0.6Q652.78 0.6 650.68-1.63 648.58-3.85 648.58-7.1L648.58-7.1Q648.58-7.7 648.6-7.93 648.63-8.15 648.63-8.2L648.63-8.2 652.93-8.2 652.93-7.7Q652.93-5.35 654.13-4.17 655.33-3 657.23-3L657.23-3Q658.93-3 660.05-4.03 661.18-5.05 661.18-6.9L661.18-6.9Q661.18-8.3 660.48-9.2 659.78-10.1 658.78-10.63 657.78-11.15 655.98-11.8L655.98-11.8Q653.78-12.55 652.43-13.3 651.08-14.05 650.13-15.53 649.18-17 649.18-19.4L649.18-19.4Q649.18-22.85 651.4-24.88 653.63-26.9 657.38-26.9L657.38-26.9Q660.93-26.9 662.93-24.83 664.93-22.75 664.93-19.7L664.93-19.7 664.88-18.75 660.63-18.75 660.63-19.2Q660.63-20.95 659.78-22.13 658.93-23.3 656.98-23.3L656.98-23.3Q655.03-23.3 654.23-22.2 653.43-21.1 653.43-19.7L653.43-19.7Q653.43-18 654.6-17.18 655.78-16.35 658.23-15.55L658.23-15.55Q660.48-14.75 661.93-13.98 663.38-13.2 664.4-11.65 665.43-10.1 665.43-7.5L665.43-7.5Q665.43-3.45 663.15-1.43 660.88 0.6 657.03 0.6L657.03 0.6Z" opacity="1" transform="matrix(1,0,0,1,0,0)" fill="#096a2e" class="undefined-text-1" data-fill-palette-color="secondary" id="text-1"></path></svg></g></svg></g></svg></g></svg></g><g></g></svg></g></svg></g></svg></g></svg></g></svg><rect width="395.52" height="247.2" fill="none" stroke="none" visibility="hidden"></rect></g></svg></g></svg>